<svg version="1.2" xmlns="http://www.w3.org/2000/svg" viewBox="0 0 1385 1516" width="1385" height="1516">
	<title>ROO</title>
	<style>
		.s0 { fill: #00ccbc } 
	</style>
	<path id="Layer" fill-rule="evenodd" class="s0" d="m997.9 0l386.4 40.1-105 986.8-220.1 489.1-962.6-202.3-96.6-450.4 547.4-114.8-121-563.7 379.5-79.8 121.3 563.4zm-304.3 969.7c20-17.9 26.2-40.8 19.7-68.5-4.4-19-26.6-31.4-39.8-37.2-6.2-2.9-13.1-4.4-20-4.4-18.6 0.4-55.4 4.8-63.4 34.6-10.6 40.5 1.8 73.7 29.5 82.8 28.1 9.1 54.3 10.9 74-7.3zm278.8 31.3c14.6-25.1 21.5-49.9 7.7-72.5-13.9-22.6-37.9-35-66-34.3-17.5 0.4-32.4 15.4-41.2 26.3-6.6 8.4-10.9 18.2-12.4 28.4-2.5 19-2.9 49.9 22.2 62 37.2 17.8 75.1 14.5 89.7-9.9z"/>
</svg>