<svg version="1.2" xmlns="http://www.w3.org/2000/svg" viewBox="0 0 1569 1577" width="1569" height="1577">
	<title>TKWY</title>
	<style>
		.s0 { fill: #ff8000 } 
	</style>
	<g id="Layer">
		<path id="Layer" fill-rule="evenodd" class="s0" d="m732 15.8c30.3-20.2 69.8-20.2 100.1 0 77.1 48.8 151.1 102.3 221.8 160.4 0 0 19.4 13 19.8-9.3-2.1-29-0.4-58.5 5.1-87.1 5.8-15.6 20.6-25.7 37-25.7 0 0 87.1 4.2 142.2 11.8 24.9 3 44.2 23.2 46.8 48 0 0 35.7 237.3 43.7 323.2 0 0 6.8 43.3 69.9 117.4 0 0 127.9 179.6 142.7 213.7 0 0 29.8 62.3-34.1 70.7 0 0-117 11.8-128.4 14.3-15.6 1.7-26.9 16-25.2 32 0 0-6.4 412.8-36.7 611.4 0 0-8 78.7-51.3 77 0 0-119.9-3.8-148.1-2.9 0 0-11.8 0-10.1-16.4 0 0 61.4-644.3 19.7-970 0 0-1.6-42-33.6-51.3 0 0-29.5-11.8-57.3 25.7-121.2 170-187.7 372.8-190.2 581.5 0 0-3.4 102.7 12.2 128.4 0 0 9.7 17.6 59.8 21.8l62.7 8.5c0 0 11.8 0 10.5 15.5 0 0-14.3 189-18.5 222.6q0 11.4-4.6 22.3c0 0-2.2 6.3-21.9 5.5 0 0-277.8-1.7-308.9 0 0 0-13.1 0-16-6.7-3-7.2-19.4-244.1-18.6-277.8-0.8-6.7 3.4-13.4 9.7-16.4 43-26.9 71.2-71.9 76.6-122.4q5.5-54.3 1.7-108.2c0 0 10.1-362.3 13.1-420.8 0 0 1.6-19.8-23.6-23.1-6.3-1.7-12.6-0.4-18.1 2.9-5.5 3-9.3 8.4-11 14.8v2.1c0 2.1-17.6 239-14.3 333.2 0 0 5.9 61.9-36.6 63.2 0 0-41.6 6.3-43.7-45.5 0 0 2.9-232.3 13.4-347.2 0-13-9.7-24.4-22.7-25.6-13.9-2.1-26.5 7.1-29 20.6q0 1.3 0 2.1c0 0-17.7 222.6-14.4 340 0 0 5.1 56.8-40.4 54.7 0 0-37.8 4.6-39.9-46.3 0 0 10.1-318.1 13-342.5-0.4-12.6-10.1-23.2-22.7-24.4h-2.5c-13.5-0.9-25.3 8.4-27.4 21.4q-0.4 1.3 0 2.2c0 0-16.8 380.8-14.7 492.7 0 0-1.7 114.9 83.3 161.6 0 0 12.6 7.1 12.6 18.1 0 0 9.7 202 18.5 266.8 0 0 3 16-10.9 16l-213.4 5.9c-23.1-0.5-42.5-18.6-43.7-41.7-27.4-213.8-40.9-429.6-39.2-645.1 1.3-16.4-9.7-31.5-25.6-35.3 0 0-109.5-9.7-135.6-16.4-24.4-6.4-38.7-31.2-32.8-55.2q1.7-6.3 5.1-11.8c177.1-306.3 425.9-565.1 724.7-754.9z"/>
	</g>
</svg>